REM DIRINDEX 1\5,1\2\6,1\2\7,1\3\8,1\3\9,1\4\10,1\4\11,1\4\12
REM DIRNAME folder01,folder02,folder03,folder04,folder05,folder06,folder07,folder08,folder09,folder10,folder11,folder12
TITLE ""
FILE "EJE_DB3000_5th_6C_34.mp3" MP3
  TRACK 01 AUDIO
    TITLE "0:"
    INDEX 01 00:00:00
  TRACK 02 AUDIO
    TITLE "10:cjc026_11463"
    INDEX 01 00:00:07
  TRACK 03 AUDIO
    TITLE "0:"
    INDEX 01 00:01:03
  TRACK 04 AUDIO
    TITLE "11:cjc026_11464"
    INDEX 01 00:01:30
  TRACK 05 AUDIO
    TITLE "0:"
    INDEX 01 00:02:30
  TRACK 06 AUDIO
    TITLE "12:cjc026_11465"
    INDEX 01 00:02:55
  TRACK 07 AUDIO
    TITLE "0:"
    INDEX 01 00:03:53
  TRACK 08 AUDIO
    TITLE "10:cjc026_11466"
    INDEX 01 00:04:05
  TRACK 09 AUDIO
    TITLE "0:"
    INDEX 01 00:05:03
  TRACK 10 AUDIO
    TITLE "11:cjc026_11467"
    INDEX 01 00:05:30
  TRACK 11 AUDIO
    TITLE "0:"
    INDEX 01 00:06:45
  TRACK 12 AUDIO
    TITLE "12:cjc026_11468"
    INDEX 01 00:06:71
  TRACK 13 AUDIO
    TITLE "0:"
    INDEX 01 00:07:68
  TRACK 14 AUDIO
    TITLE "10:cjc026_11469"
    INDEX 01 00:08:23
  TRACK 15 AUDIO
    TITLE "0:"
    INDEX 01 00:09:26
  TRACK 16 AUDIO
    TITLE "11:cjc026_11470"
    INDEX 01 00:09:53
  TRACK 17 AUDIO
    TITLE "0:"
    INDEX 01 00:10:55
  TRACK 18 AUDIO
    TITLE "12:cjc026_11471"
    INDEX 01 00:11:05
  TRACK 19 AUDIO
    TITLE "0:"
    INDEX 01 00:12:09
  TRACK 20 AUDIO
    TITLE "10:cjc026_11472"
    INDEX 01 00:12:38
  TRACK 21 AUDIO
    TITLE "0:"
    INDEX 01 00:13:35
  TRACK 22 AUDIO
    TITLE "11:cjc026_11473"
    INDEX 01 00:13:63
  TRACK 23 AUDIO
    TITLE "0:"
    INDEX 01 00:14:74
  TRACK 24 AUDIO
    TITLE "12:cjc026_11474"
    INDEX 01 00:15:27
  TRACK 25 AUDIO
    TITLE "0:"
    INDEX 01 00:16:26
  TRACK 26 AUDIO
    TITLE "10:cjc026_11475"
    INDEX 01 00:16:53
  TRACK 27 AUDIO
    TITLE "0:"
    INDEX 01 00:17:55
  TRACK 28 AUDIO
    TITLE "11:cjc026_11476"
    INDEX 01 00:18:05
  TRACK 29 AUDIO
    TITLE "0:"
    INDEX 01 00:18:74
  TRACK 30 AUDIO
    TITLE "12:cjc026_11477"
    INDEX 01 00:19:24
  TRACK 31 AUDIO
    TITLE "0:"
    INDEX 01 00:20:28
  TRACK 32 AUDIO
    TITLE "10:cjc026_11478"
    INDEX 01 00:20:53
  TRACK 33 AUDIO
    TITLE "0:"
    INDEX 01 00:21:45
  TRACK 34 AUDIO
    TITLE "11:cjc026_11479"
    INDEX 01 00:21:70
  TRACK 35 AUDIO
    TITLE "0:"
    INDEX 01 00:22:70
  TRACK 36 AUDIO
    TITLE "12:cjc026_11480"
    INDEX 01 00:23:20
  TRACK 37 AUDIO
    TITLE "0:"
    INDEX 01 00:24:10
  TRACK 38 AUDIO
    TITLE "10:cjc026_11481"
    INDEX 01 00:24:35
  TRACK 39 AUDIO
    TITLE "0:"
    INDEX 01 00:25:39
  TRACK 40 AUDIO
    TITLE "11:cjc026_11482"
    INDEX 01 00:25:64
  TRACK 41 AUDIO
    TITLE "0:"
    INDEX 01 00:27:08
  TRACK 42 AUDIO
    TITLE "12:cjc026_11483"
    INDEX 01 00:27:34
  TRACK 43 AUDIO
    TITLE "0:"
    INDEX 01 00:28:37
  TRACK 44 AUDIO
    TITLE "10:cjc026_11484"
    INDEX 01 00:28:62
  TRACK 45 AUDIO
    TITLE "0:"
    INDEX 01 00:29:60
  TRACK 46 AUDIO
    TITLE "11:cjc026_11485"
    INDEX 01 00:30:12
  TRACK 47 AUDIO
    TITLE "0:"
    INDEX 01 00:31:14
  TRACK 48 AUDIO
    TITLE "12:cjc026_11486"
    INDEX 01 00:31:35
  TRACK 49 AUDIO
    TITLE "0:"
    INDEX 01 00:32:33
  TRACK 50 AUDIO
    TITLE "10:cjc026_11487"
    INDEX 01 00:32:60
  TRACK 51 AUDIO
    TITLE "0:"
    INDEX 01 00:33:54
  TRACK 52 AUDIO
    TITLE "11:cjc026_11488"
    INDEX 01 00:34:04
  TRACK 53 AUDIO
    TITLE "0:"
    INDEX 01 00:35:12
  TRACK 54 AUDIO
    TITLE "12:cjc026_11489"
    INDEX 01 00:35:37
  TRACK 55 AUDIO
    TITLE "0:"
    INDEX 01 00:36:31
  TRACK 56 AUDIO
    TITLE "10:cjc026_11490"
    INDEX 01 00:36:56
  TRACK 57 AUDIO
    TITLE "0:"
    INDEX 01 00:37:54
  TRACK 58 AUDIO
    TITLE "11:cjc026_11491"
    INDEX 01 00:38:04
  TRACK 59 AUDIO
    TITLE "0:"
    INDEX 01 00:39:03
  TRACK 60 AUDIO
    TITLE "12:cjc026_11492"
    INDEX 01 00:39:29
  TRACK 61 AUDIO
    TITLE "0:"
    INDEX 01 00:40:26
  TRACK 62 AUDIO
    TITLE "10:cjc026_11493"
    INDEX 01 00:40:52
  TRACK 63 AUDIO
    TITLE "0:"
    INDEX 01 00:41:55
  TRACK 64 AUDIO
    TITLE "11:cjc026_11494"
    INDEX 01 00:42:06
  TRACK 65 AUDIO
    TITLE "0:"
    INDEX 01 00:43:07
  TRACK 66 AUDIO
    TITLE "12:cjc026_11495"
    INDEX 01 00:43:33
  TRACK 67 AUDIO
    TITLE "0:"
    INDEX 01 00:44:36
  TRACK 68 AUDIO
    TITLE "10:cjc026_11496"
    INDEX 01 00:44:61
  TRACK 69 AUDIO
    TITLE "0:"
    INDEX 01 00:45:61
  TRACK 70 AUDIO
    TITLE "11:cjc026_11497"
    INDEX 01 00:46:11
  TRACK 71 AUDIO
    TITLE "0:"
    INDEX 01 00:46:70
  TRACK 72 AUDIO
    TITLE "12:cjc026_11498"
    INDEX 01 00:47:21
  TRACK 73 AUDIO
    TITLE "0:"
    INDEX 01 00:48:18
  TRACK 74 AUDIO
    TITLE "10:cjc026_11499"
    INDEX 01 00:48:44
  TRACK 75 AUDIO
    TITLE "0:"
    INDEX 01 00:49:53
  TRACK 76 AUDIO
    TITLE "11:cjc026_11500"
    INDEX 01 00:50:01
  TRACK 77 AUDIO
    TITLE "0:"
    INDEX 01 00:51:09
  TRACK 78 AUDIO
    TITLE "12:cjc026_11501"
    INDEX 01 00:51:32
  TRACK 79 AUDIO
    TITLE "0:"
    INDEX 01 00:52:41
  TRACK 80 AUDIO
    TITLE "10:cjc026_11502"
    INDEX 01 00:52:67
  TRACK 81 AUDIO
    TITLE "0:"
    INDEX 01 00:54:09
  TRACK 82 AUDIO
    TITLE "11:cjc026_11503"
    INDEX 01 00:54:34
  TRACK 83 AUDIO
    TITLE "0:"
    INDEX 01 00:55:53
  TRACK 84 AUDIO
    TITLE "12:cjc026_11504"
    INDEX 01 00:56:02
  TRACK 85 AUDIO
    TITLE "0:"
    INDEX 01 00:57:21
